# xmcd
#
# Track frame offsets:
#	150
#	17056
#	31635
#	44022
#	62783
#	74969
#	89933
#	101574
#	111354
#	130013
#	142475
#	154365
#	180342
#	198344
#	215394
#	234602
#
# Disc length: 3262 seconds
#
# Revision: 0
# Processed by: cddbd v1.5.2PL0 Copyright (c) Steve Scherf et al.
# Submitted via: EasyCDDAExtractor 10.0.3.1
#
DISCID=f80cbc10
DTITLE=Billy Preston - That's The Way God Planned It
DYEAR=1968
DGENRE=R&B
TTITLE0=Do What You Want
TTITLE1=I Want to Thank You
TTITLE2=Everything's Alright
TTITLE3=She Belong To Me
TTITLE4=It Doesn't Matter
TTITLE5=Morning Star
TTITLE6=Hey Brother
TTITLE7=What About You
TTITLE8=Let Us All Get Together (Right Now)
TTITLE9=This Is It
TTITLE10=Keep It to Yourself
TTITLE11=That's The Way God Planned It (Parts 1 and 2)
TTITLE12=Through All Times (Bonus Track)
TTITLE13=As I Get Older (Bonus Track)
TTITLE14=That's The Way God Planned It (Alternate Version) (Bonus Track)
TTITLE15=Something's Got To Change (Bonus Track)
EXTD=
EXTT0=
EXTT1=
EXTT2=
EXTT3=
EXTT4=
EXTT5=
EXTT6=
EXTT7=
EXTT8=
EXTT9=
EXTT10=
EXTT11=
EXTT12=
EXTT13=
EXTT14=
EXTT15=
PLAYORDER=
